<?xml version="1.0" standalone="no"?>
<!DOCTYPE svg PUBLIC "-//W3C//DTD SVG 20010904//EN"
 "http://www.w3.org/TR/2001/REC-SVG-20010904/DTD/svg10.dtd">
<svg version="1.0" xmlns="http://www.w3.org/2000/svg"
 width="2024.000000pt" height="2024.000000pt" viewBox="0 0 2024.000000 2024.000000"
 preserveAspectRatio="xMidYMid meet">
<metadata>
Created by potrace 1.14, written by Peter Selinger 2001-2017
</metadata>
<g transform="translate(0.000000,2024.000000) scale(0.100000,-0.100000)"
fill="#000000" stroke="none">
<path d="M9750 19863 c-254 -13 -444 -27 -605 -44 -1411 -145 -2761 -591
-3980 -1316 -964 -574 -1838 -1326 -2559 -2203 -1193 -1450 -1946 -3239 -2151
-5109 -65 -597 -72 -1334 -19 -1936 142 -1617 686 -3168 1585 -4520 556 -836
1222 -1568 2010 -2207 1280 -1037 2842 -1742 4474 -2018 1739 -294 3507 -120
5140 507 548 211 1156 514 1655 825 462 288 939 647 1365 1027 269 239 671
655 931 961 2132 2513 2841 5957 1880 9131 -275 908 -673 1748 -1211 2559
-365 551 -737 1003 -1225 1491 -377 377 -671 633 -1070 930 -1703 1269 -3741
1939 -5860 1927 -168 -1 -330 -3 -360 -5z m-4700 -6936 c221 -38 372 -83 536
-161 158 -76 253 -143 380 -270 267 -266 417 -622 469 -1114 17 -161 20 -555
5 -722 -53 -579 -208 -969 -505 -1265 -188 -188 -406 -312 -655 -373 -210 -51
-254 -54 -947 -59 l-653 -5 0 -629 0 -629 -840 0 -840 0 0 2625 0 2626 1473
-4 c1353 -2 1481 -4 1577 -20z m3254 -14 c7 -43 386 -2878 386 -2887 0 -3 10
-6 23 -6 22 0 30 33 327 1465 l304 1465 643 0 643 0 5 -22 c4 -18 539 -2624
586 -2855 9 -46 14 -53 33 -53 20 0 24 6 29 43 3 23 92 682 199 1464 l193
1423 883 0 882 0 -5 -22 c-5 -21 -815 -5214 -815 -5224 0 -2 -496 -4 -1103 -4
l-1103 0 -188 953 c-104 523 -191 958 -194 965 -3 9 -20 12 -50 10 l-46 -3
-188 -960 c-103 -528 -188 -961 -188 -962 0 -2 -495 -3 -1100 -3 -732 0 -1100
3 -1100 10 0 6 -184 1183 -410 2616 -225 1433 -410 2610 -410 2615 0 5 358 9
879 9 l879 0 6 -37z m8996 35 c0 -2 306 -1182 679 -2623 l678 -2620 -885 -3
c-487 -1 -887 -1 -889 1 -2 2 -47 189 -100 416 l-97 411 -691 0 -691 0 -94
-415 -94 -415 -889 0 c-841 0 -888 1 -883 18 3 9 307 1185 676 2612 368 1427
672 2601 675 2608 3 9 274 12 1305 12 715 0 1300 -1 1300 -2z"/>
<path d="M3680 10954 l0 -647 298 6 c400 8 515 30 590 111 67 73 67 72 67 541
l0 420 -24 47 c-67 136 -192 168 -658 168 l-273 0 0 -646z"/>
<path d="M15784 10607 l-170 -732 194 -3 c106 -1 278 -1 381 0 l187 3 -161
705 c-89 388 -165 717 -168 733 -7 24 -12 27 -50 27 l-42 0 -171 -733z"/>
</g>
</svg>
